#!OML:ASF H:\Pregnant\Project 1\Capture day 1\Session 1\femalepreg.ASF
:FULLY-SPECIFIED
:DEGREES
491
root 7.33523 15.8359 18.8878 -164.169 -17.5683 -176.28
lowerback -20.251 6.68621 5.58101
upperback -7.13636 6.79734 -2.32821
thorax 4.45707 2.8507 -4.02654
lowerneck -2.7484 18.2422 19.2074
upperneck 14.031 24.7554 -10.5488
head 8.50363 12.186 -3.55679
rclavicle -5.58088e-014 3.26007e-014
rhumerus -37.5519 8.17626 -86.8909
rradius 63.3148
rwrist -52.9523
rhand -40.4065 -64.5893
rfingers 7.12502
rthumb -13.3596 94.141
lclavicle -5.58088e-014 3.26007e-014
lhumerus -47.9528 -43.9949 95.5751
lradius 57.8037
lwrist 78.0332
lhand -36.2365 21.3911
lfingers 7.12502
lthumb -9.33796 51.1643
rfemur -16.1929 17.7234 21.2816
rtibia 17.1793
rfoot -10.9829 -33.7053
rtoes -6.47312
lfemur -29.56 -9.38556 -11.5917
ltibia 25.1154
lfoot -11.1638 2.92915
ltoes -21.8011
492
root 7.34101 15.8355 18.8908 -164.19 -17.6714 -176.248
lowerback -20.2814 6.70415 5.60885
upperback -7.09955 6.81765 -2.29931
thorax 4.51412 2.86521 -4.00157
lowerneck -2.73557 18.2227 19.1747
upperneck 14.038 24.7352 -10.5591
head 8.49808 12.1748 -3.56161
rclavicle 3.42904e-015 1.03368e-014
rhumerus -37.6691 8.34689 -86.8173
rradius 62.8063
rwrist -52.3315
rhand -40.4396 -62.0252
rfingers 7.12502
rthumb -13.3915 91.5748
lclavicle 3.42904e-015 1.03368e-014
lhumerus -48.2142 -43.5329 95.485
lradius 56.9755
lwrist 77.9835
lhand -36.4963 21.4169
lfingers 7.12502
lthumb -9.58867 51.1787
rfemur -16.1606 17.6157 21.3597
rtibia 17.1327
rfoot -10.966 -33.6823
rtoes -6.43887
lfemur -29.6191 -9.40385 -11.5295
ltibia 25.1526
lfoot -11.1766 2.87317
ltoes -21.7621
493
root 7.34663 15.8345 18.8937 -164.241 -17.7992 -176.22
lowerback -20.2868 6.7086 5.63594
upperback -7.05304 6.82449 -2.26719
thorax 4.56679 2.87464 -3.97766
lowerneck -2.71692 18.2031 19.1444
upperneck 14.0381 24.7164 -10.5756
head 8.49058 12.1645 -3.56903
rclavicle -4.30866e-014 1.51076e-014
rhumerus -37.7891 8.50721 -86.7504
rradius 62.2855
rwrist -51.6415
rhand -40.4944 -59.9962
rfingers 7.12502
rthumb -13.4444 270.458
lclavicle -4.30866e-014 1.51076e-014
lhumerus -48.418 -43.0418 95.3703
lradius 56.0703
lwrist 77.8552
lhand -36.7032 21.4332
lfingers 7.12502
lthumb -9.78828 51.1857
rfemur -16.0852 17.5352 21.4454
rtibia 17.0833
rfoot -10.9673 -33.7087
rtoes -6.37006
lfemur -29.655 -9.41754 -11.4799
ltibia 25.1961
lfoot -11.1989 2.78344
ltoes -21.7243
494
root 7.352 15.8329 18.8964 -164.317 -17.9438 -176.196
lowerback -20.2682 6.70828 5.6681
upperback -7.00178 6.82798 -2.24153
thorax 4.61325 2.88337 -3.96593
lowerneck -2.68101 18.1777 19.133
upperneck 14.0246 24.6911 -10.5999
head 8.47819 12.1524 -3.58399
rclavicle 9.22361e-014 -1.98785e-015
rhumerus -37.9176 8.63977 -86.6984
rradius 61.7445
rwrist -50.8497
rhand -40.5702 -58.653
rfingers 7.12502
rthumb -13.5174 271.806
lclavicle 9.22361e-014 -1.98785e-015
lhumerus -48.5801 -42.5439 95.2335
lradius 55.0961
lwrist 77.6294
lhand -36.8386 21.4253
lfingers 7.12502
lthumb -9.91894 51.1716
rfemur -15.9696 17.4872 21.5361
rtibia 17.0288
rfoot -10.9823 -33.7818
rtoes -6.26842
lfemur -29.6683 -9.43153 -11.441
ltibia 25.2461
lfoot -11.2298 2.67157
ltoes -21.6806
495
root 7.35718 15.8314 18.8998 -164.399 -18.0737 -176.162
lowerback -20.2296 6.7224 5.71998
upperback -6.95589 6.84854 -2.22594
thorax 4.64903 2.90009 -3.97312
lowerneck -2.63809 18.145 19.118
upperneck 13.9905 24.6553 -10.6228
head 8.4554 12.136 -3.60151
rclavicle 1.00784e-013 1.74931e-014
rhumerus -38.0514 8.73985 -86.6569
rradius 61.1769
rwrist -49.9418
rhand -40.682 -57.9938
rfingers 7.12502
rthumb -13.6252 272.472
lclavicle 1.00784e-013 1.74931e-014
lhumerus -48.6987 -42.0477 95.0759
lradius 54.0581
lwrist 77.297
lhand -36.893 21.3579
lfingers 7.12502
lthumb -9.97144 51.1017
rfemur -15.8533 17.4398 21.6312
rtibia 16.9678
rfoot -10.9855 -33.841
rtoes -6.18094
lfemur -29.68 -9.43747 -11.3973
ltibia 25.3022
lfoot -11.2621 2.56828
ltoes -21.6425
496
root 7.36244 15.8301 18.9035 -164.479 -18.1867 -176.124
lowerback -20.184 6.74528 5.77863
upperback -6.9129 6.87989 -2.21605
thorax 4.68077 2.92183 -3.98797
lowerneck -2.58553 18.1075 19.1211
upperneck 13.9463 24.6135 -10.6522
head 8.4299 12.1178 -3.62517
rclavicle 4.63168e-014 -1.74931e-014
rhumerus -38.186 8.81552 -86.632
rradius 60.5649
rwrist -48.8996
rhand -40.7986 -57.614
rfingers 7.12502
rthumb -13.7376 272.859
lclavicle 4.63168e-014 -1.74931e-014
lhumerus -48.7706 -41.5352 94.8875
lradius 52.9659
lwrist 76.8484
lhand -36.8875 21.2597
lfingers 7.12502
lthumb -9.96607 51.0038
rfemur -15.739 17.4052 21.7248
rtibia 16.8955
rfoot -10.972 -33.8941
rtoes -6.10471
lfemur -29.6932 -9.43087 -11.3518
ltibia 25.3618
lfoot -11.2948 2.47
ltoes -21.6076
497
root 7.36785 15.8292 18.9078 -164.548 -18.2797 -176.079
lowerback -20.1386 6.77531 5.8415
upperback -6.87671 6.91867 -2.20836
thorax 4.70686 2.94634 -4.00585
lowerneck -2.52121 18.0699 19.1359
upperneck 13.9018 24.5726 -10.6827
head 8.40416 12.101 -3.65127
rclavicle -3.88127e-014 -2.06736e-014
rhumerus -38.3231 8.88102 -86.6245
rradius 59.9133
rwrist -47.7486
rhand -40.9141 -57.2215
rfingers 7.12502
rthumb -13.8488 273.26
lclavicle -3.88127e-014 -2.06736e-014
lhumerus -48.7986 -40.9931 94.6683
lradius 51.8267
lwrist 76.2906
lhand -36.8337 21.1102
lfingers 7.12502
lthumb -9.91422 50.8567
rfemur -15.6413 17.3401 21.8178
rtibia 16.8117
rfoot -10.9339 -33.8975
rtoes -6.05913
lfemur -29.7179 -9.41535 -11.3002
ltibia 25.4218
lfoot -11.3232 2.38382
ltoes -21.5789
498
root 7.37338 15.8288 18.9126 -164.603 -18.3511 -176.027
lowerback -20.095 6.81538 5.91327
upperback -6.84996 6.96744 -2.20582
thorax 4.72658 2.97456 -4.03185
lowerneck -2.44725 18.0296 19.1701
upperneck 13.8582 24.5281 -10.7146
head 8.37928 12.0837 -3.68131
rclavicle 7.44946e-014 2.78299e-014
rhumerus -38.4616 8.92039 -86.6315
rradius 59.2251
rwrist -46.4864
rhand -41.0215 -56.7941
rfingers 7.12502
rthumb -13.9524 273.694
lclavicle 7.44946e-014 2.78299e-014
lhumerus -48.7865 -40.4248 94.4179
lradius 50.6423
lwrist 75.6282
lhand -36.7524 20.8984
lfingers 7.12502
lthumb -9.83578 50.6486
rfemur -15.567 17.2678 21.908
rtibia 16.7197
rfoot -10.8768 -33.8699
rtoes -6.02603
lfemur -29.7558 -9.39056 -11.2391
ltibia 25.4784
lfoot -11.3444 2.31247
ltoes -21.5641
499
root 7.37901 15.8285 18.9175 -164.656 -18.4203 -175.975
lowerback -20.0593 6.8395 5.96898
upperback -6.80929 6.99788 -2.18161
thorax 4.75879 2.99512 -4.02931
lowerneck -2.39589 18.0013 19.1821
upperneck 13.8198 24.5011 -10.7571
head 8.36113 12.0719 -3.70663
rclavicle 4.04527e-014 -8.34896e-015
rhumerus -38.5663 8.98462 -86.6257
rradius 58.4972
rwrist -45.1342
rhand -41.1082 -56.3157
rfingers 7.12502
rthumb -14.0359 274.178
lclavicle 4.04527e-014 -8.34896e-015
lhumerus -48.691 -39.7751 94.1276
lradius 49.4085
lwrist 74.8657
lhand -36.6396 20.6054
lfingers 7.12502
lthumb -9.72696 50.3608
rfemur -15.495 17.193 21.9964
rtibia 16.6263
rfoot -10.8161 -33.8373
rtoes -5.98709
lfemur -29.7927 -9.36059 -11.1794
ltibia 25.5295
lfoot -11.3606 2.23487
ltoes -21.5448
500
root 7.38483 15.8284 18.9226 -164.703 -18.4958 -175.926
lowerback -20.0212 6.85715 6.02081
upperback -6.77068 7.02046 -2.15757
thorax 4.7862 3.0116 -4.0272
lowerneck -2.35254 17.9739 19.2007
upperneck 13.7888 24.4744 -10.8017
head 8.34795 12.0598 -3.73221
rclavicle -1.75924e-014 -3.26007e-014
rhumerus -38.6624 9.03379 -86.6244
rradius 57.7396
rwrist -43.728
rhand -41.1719 -55.856
rfingers 7.12502
rthumb -14.0973 274.642
lclavicle -1.75924e-014 -3.26007e-014
lhumerus -48.5509 -39.0827 93.8025
lradius 48.1386
lwrist 74.0194
lhand -36.535 20.263
lfingers 7.12502
lthumb -9.62605 50.0231
rfemur -15.4319 17.1271 22.0794
rtibia 16.5366
rfoot -10.7632 -33.8179
rtoes -5.9273
lfemur -29.8362 -9.3252 -11.1227
ltibia 25.575
lfoot -11.3722 2.14285
ltoes -21.5358
501
root 7.39046 15.8279 18.9275 -164.767 -18.5935 -175.887
lowerback -19.9691 6.86094 6.06773
upperback -6.7224 7.02882 -2.13243
thorax 4.8145 3.02244 -4.02558
lowerneck -2.33746 17.9517 19.2078
upperneck 13.7759 24.451 -10.836
head 8.34322 12.048 -3.74965
rclavicle -5.09883e-014 0
rhumerus -38.7434 9.06962 -86.6221
rradius 56.9522
rwrist -42.303
rhand -41.228 -55.3694
rfingers 7.12502
rthumb -14.1513 275.133
lclavicle -5.09883e-014 0
lhumerus -48.3554 -38.3456 93.4387
lradius 46.8315
lwrist 73.103
lhand -36.4305 19.8639
lfingers 7.12502
lthumb -9.52518 49.6286
rfemur -15.3446 17.0637 22.1627
rtibia 16.4551
rfoot -10.7348 -33.824
rtoes -5.8324
lfemur -29.8622 -9.29305 -11.0798
ltibia 25.616
lfoot -11.3843 2.02333
ltoes -21.5185
502
root 7.39588 15.827 18.932 -164.851 -18.7173 -175.858
lowerback -19.9045 6.84928 6.10841
upperback -6.66414 7.02111 -2.1073
thorax 4.84448 3.02677 -4.02529
lowerneck -2.3284 17.9289 19.2223
upperneck 13.7638 24.4262 -10.8753
head 8.34118 12.0354 -3.76899
rclavicle -1.73937e-014 5.1684e-015
rhumerus -38.8129 9.08782 -86.6198
rradius 56.1421
rwrist -40.9029
rhand -41.2694 -54.857
rfingers 7.12502
rthumb -14.1912 275.648
lclavicle -1.73937e-014 5.1684e-015
lhumerus -48.1205 -37.5705 93.0399
lradius 45.5008
lwrist 72.1279
lhand -36.3253 19.4129
lfingers 7.12502
lthumb -9.42366 49.1822
rfemur -15.2257 17.0108 22.2479
rtibia 16.3808
rfoot -10.7282 -33.868
rtoes -5.71274
lfemur -29.8662 -9.27118 -11.0503
ltibia 25.6535
lfoot -11.3984 1.88077
ltoes -21.4959
503
root 7.40119 15.8259 18.9369 -164.94 -18.8483 -175.829
lowerback -19.8302 6.83478 6.15379
upperback -6.60344 7.01026 -2.0837
thorax 4.8724 3.02995 -4.03072
lowerneck -2.3289 17.9057 19.2177
upperneck 13.7431 24.3988 -10.9068
head 8.3339 12.021 -3.78389
rclavicle -1.02374e-014 -1.43125e-014
rhumerus -38.8686 9.0857 -86.609
rradius 55.3149
rwrist -39.5762
rhand -41.2976 -54.3133
rfingers 7.12502
rthumb -14.2184 276.193
lclavicle -1.02374e-014 -1.43125e-014
lhumerus -47.8474 -36.7663 92.6132
lradius 44.1523
lwrist 71.1038
lhand -36.2428 18.9286
lfingers 7.12502
lthumb -9.34406 48.7015
rfemur -15.1053 16.9524 22.3349
rtibia 16.3132
rfoot -10.7279 -33.9155
rtoes -5.59198
lfemur -29.8678 -9.25644 -11.0205
ltibia 25.6899
lfoot -11.4083 1.73667
ltoes -21.474
504
root 7.40645 15.8251 18.942 -165.021 -18.968 -175.798
lowerback -19.7706 6.81079 6.18725
upperback -6.53079 6.98758 -2.04098
thorax 4.91559 3.02828 -4.01047
lowerneck -2.35305 17.894 19.1852
upperneck 13.7209 24.387 -10.9434
head 8.32949 12.0113 -3.7923
rclavicle 1.26725e-013 7.55382e-015
rhumerus -38.8869 9.09612 -86.5717
rradius 54.4719
rwrist -38.3437
rhand -41.3061 -53.8704
rfingers 7.12502
rthumb -14.2266 276.637
lclavicle 1.26725e-013 7.55382e-015
lhumerus -47.511 -35.8849 92.1544
lradius 42.7835
lwrist 70.0202
lhand -36.1826 18.4081
lfingers 7.12502
lthumb -9.28598 48.1836
rfemur -15 16.8804 22.4201
rtibia 16.2479
rfoot -10.7193 -33.9388
rtoes -5.49193
lfemur -29.8768 -9.24208 -10.9863
ltibia 25.7265
lfoot -11.4145 1.60665
ltoes -21.4624
505
root 7.41158 15.8242 18.9473 -165.099 -19.0809 -175.766
lowerback -19.725 6.77607 6.20749
upperback -6.45036 6.95126 -1.98176
thorax 4.96927 3.02036 -3.96735
lowerneck -2.36787 17.8888 19.1482
upperneck 13.6941 24.3881 -10.9924
head 8.32499 12.007 -3.80262
rclavicle -2.92213e-014 -3.97569e-015
rhumerus -38.8837 9.1111 -86.5115
rradius 53.6175
rwrist -37.2092
rhand -41.2952 -53.4997
rfingers 7.12502
rthumb -14.2161 277.007
lclavicle -2.92213e-014 -3.97569e-015
lhumerus -47.1365 -34.9313 91.6734
lradius 41.4027
lwrist 68.8819
lhand -36.1244 17.8186
lfingers 7.12502
lthumb -9.22986 47.5966
rfemur -14.8994 16.8025 22.5037
rtibia 16.1822
rfoot -10.706 -33.9508
rtoes -5.40588
lfemur -29.8871 -9.23292 -10.95
ltibia 25.7633
lfoot -11.4203 1.48959
ltoes -21.4521
